<?xml version="1.0" encoding="utf-8"?>
<!-- Generator: Adobe Illustrator 15.0.2, SVG Export Plug-In . SVG Version: 6.00 Build 0)  -->
<!DOCTYPE svg PUBLIC "-//W3C//DTD SVG 1.1//EN" "http://www.w3.org/Graphics/SVG/1.1/DTD/svg11.dtd">
<svg version="1.1" id="Layer_1" xmlns="http://www.w3.org/2000/svg" xmlns:xlink="http://www.w3.org/1999/xlink" x="0px" y="0px"
	 width="402px" height="110.5px" viewBox="0 0 402 110.5" enable-background="new 0 0 402 110.5" xml:space="preserve">
<rect x="142.904" y="69.277" fill="none" stroke="#4683B5" stroke-miterlimit="10" width="116.868" height="36.145"/>
<g>
	<path fill="#4683B5" d="M175.99,83.258l-1.074,0.134l-2.64,11.321h-2.425l-2.39-8.6h-0.054l-2.389,8.6h-2.425l-2.658-11.321
		l-1.065-0.134v-1.575h4.796v1.575l-1.19,0.206l1.494,7.142l0.054,0.009l2.443-8.931h1.924l2.461,8.931l0.054-0.009l1.486-7.142
		l-1.19-0.206v-1.575h4.788V83.258z"/>
	<path fill="#4683B5" d="M184.805,88.985h-4.412v3.723h4.206l0.116-1.557h1.987v3.562h-10.31v-1.566l1.387-0.269v-9.352
		l-1.387-0.269v-1.575h1.387h8.904v3.571h-2.004l-0.116-1.557h-4.17v3.275h4.412V88.985z"/>
	<path fill="#4683B5" d="M193.521,81.683c1.533,0,2.729,0.298,3.589,0.895c0.859,0.596,1.289,1.488,1.289,2.676
		c0,0.603-0.16,1.141-0.479,1.615c-0.319,0.474-0.783,0.831-1.392,1.069c0.781,0.167,1.368,0.525,1.758,1.074
		c0.391,0.549,0.586,1.185,0.586,1.906c0,1.247-0.412,2.191-1.235,2.833c-0.823,0.641-1.99,0.962-3.499,0.962h-6.408v-1.566
		l1.387-0.269v-9.352l-1.387-0.269v-1.575h1.387H193.521z M191.732,87.142h1.879c0.698,0,1.235-0.144,1.611-0.43
		c0.375-0.287,0.563-0.704,0.563-1.253c0-0.603-0.189-1.047-0.568-1.333c-0.379-0.286-0.944-0.429-1.696-0.429h-1.79V87.142z
		 M191.732,88.95v3.759h2.407c0.692,0,1.22-0.151,1.584-0.452s0.546-0.747,0.546-1.338c0-0.638-0.155-1.126-0.465-1.463
		c-0.31-0.337-0.799-0.505-1.468-0.505H191.732z"/>
	<path fill="#4683B5" d="M205.684,81.683c1.492,0,2.668,0.383,3.531,1.15c0.861,0.767,1.293,1.771,1.293,3.011
		c0,1.247-0.432,2.25-1.293,3.007c-0.863,0.758-2.039,1.137-3.531,1.137h-2.201v2.891l1.396,0.269v1.566h-5.397v-1.566l1.387-0.269
		v-9.352l-1.387-0.269v-1.575h1.387H205.684z M203.482,87.974h2.201c0.729,0,1.279-0.198,1.65-0.595
		c0.373-0.396,0.561-0.902,0.561-1.517c0-0.626-0.188-1.144-0.561-1.553c-0.371-0.409-0.922-0.613-1.65-0.613h-2.201V87.974z"/>
	<path fill="#4683B5" d="M208.727,93.147l0.931-0.134l3.964-11.33h2.676l3.938,11.33l0.932,0.134v1.566h-4.439v-1.566l0.904-0.161
		l-0.573-1.79h-4.224l-0.573,1.79l0.904,0.161v1.566h-4.438V93.147z M213.451,89.272h2.989l-1.468-4.591h-0.054L213.451,89.272z"/>
	<path fill="#4683B5" d="M231.923,93.263c-0.424,0.417-1.041,0.795-1.853,1.132c-0.812,0.337-1.838,0.506-3.078,0.506
		c-1.761,0-3.192-0.589-4.296-1.768s-1.655-2.71-1.655-4.595V88.09c0-1.951,0.544-3.538,1.633-4.761s2.511-1.834,4.265-1.834
		c1.02,0,1.952,0.163,2.796,0.488c0.845,0.325,1.547,0.765,2.108,1.32v2.622h-1.934l-0.367-1.745
		c-0.238-0.203-0.553-0.365-0.943-0.488c-0.392-0.122-0.84-0.183-1.348-0.183c-1.14,0-2.025,0.42-2.657,1.262
		c-0.633,0.841-0.949,1.942-0.949,3.302v0.465c0,1.324,0.311,2.382,0.931,3.172c0.621,0.791,1.516,1.186,2.686,1.186
		c0.524,0,0.949-0.044,1.274-0.134c0.325-0.09,0.581-0.194,0.766-0.313v-2.21l-1.861-0.143v-1.834h4.483V93.263z"/>
	<path fill="#4683B5" d="M241.275,88.985h-4.412v3.723h4.206l0.117-1.557h1.986v3.562h-10.31v-1.566l1.388-0.269v-9.352
		l-1.388-0.269v-1.575h1.388h8.904v3.571h-2.005l-0.116-1.557h-4.171v3.275h4.412V88.985z"/>
</g>
<rect x="142.904" y="4.277" fill="none" stroke="#D1D3D4" stroke-miterlimit="10" width="116.868" height="36.145"/>
<g>
	<path fill="#58595B" d="M174.514,13.258v-1.575h5.396v1.575l-1.396,0.269v3.759h5.316v-3.759l-1.396-0.269v-1.575h1.396h2.604
		h1.396v1.575l-1.396,0.269v9.352l1.396,0.269v1.566h-5.396v-1.566l1.396-0.269v-3.58h-5.316v3.58l1.396,0.269v1.566h-5.396v-1.566
		l1.387-0.269v-9.352L174.514,13.258z"/>
	<path fill="#58595B" d="M200.314,11.683v3.472h-2.005l-0.107-1.458h-2.398v9.182l1.396,0.269v1.566h-5.405v-1.566l1.396-0.269
		v-9.182h-2.39l-0.107,1.458h-1.996v-3.472H200.314z"/>
	<path fill="#58595B" d="M213.737,15.075l-0.054-0.009l-3.489,9.647h-1.755l-3.472-9.611l-0.054,0.009l0.25,5.719v2.049l1.396,0.269
		v1.566h-5.396v-1.566l1.388-0.269v-9.352l-1.388-0.269v-1.575h1.388h3.409l3.32,9.602h0.054l3.347-9.602h4.814v1.575l-1.396,0.269
		v9.352l1.396,0.269v1.566H212.1v-1.566l1.388-0.269v-2.049L213.737,15.075z"/>
	<path fill="#58595B" d="M218.427,24.713v-1.566l1.388-0.269v-9.352l-1.388-0.269v-1.575h1.388h2.612h1.396v1.575l-1.396,0.269
		v9.182h3.679l0.125-1.638h1.996v3.642H218.427z"/>
</g>
<rect x="282.904" y="4.277" fill="none" stroke="#D1D3D4" stroke-miterlimit="10" width="116.867" height="36.145"/>
<g>
	<path fill="#58595B" d="M335.463,16.077h-1.941l-0.269-1.736c-0.257-0.256-0.58-0.459-0.971-0.608
		c-0.392-0.149-0.852-0.224-1.383-0.224c-1.134,0-2.006,0.412-2.618,1.235c-0.611,0.823-0.916,1.897-0.916,3.222v0.457
		c0,1.324,0.304,2.401,0.912,3.23s1.468,1.244,2.578,1.244c0.512,0,0.982-0.074,1.408-0.224c0.428-0.149,0.757-0.352,0.989-0.608
		l0.269-1.736h1.941v2.578c-0.524,0.608-1.193,1.093-2.008,1.454s-1.727,0.542-2.734,0.542c-1.748,0-3.18-0.605-4.296-1.817
		c-1.116-1.211-1.673-2.765-1.673-4.662v-0.438c0-1.892,0.555-3.446,1.664-4.663c1.109-1.217,2.545-1.826,4.305-1.826
		c1.008,0,1.918,0.184,2.729,0.55s1.482,0.852,2.013,1.454V16.077z"/>
	<path fill="#58595B" d="M346.561,15.844h-1.959l-0.342-1.79c-0.227-0.144-0.557-0.269-0.992-0.376s-0.898-0.161-1.387-0.161
		c-0.717,0-1.27,0.151-1.66,0.452c-0.392,0.301-0.587,0.69-0.587,1.167c0,0.442,0.204,0.804,0.612,1.087
		c0.41,0.284,1.115,0.583,2.117,0.899c1.438,0.4,2.527,0.928,3.271,1.584c0.742,0.656,1.113,1.519,1.113,2.586
		c0,1.116-0.441,1.996-1.324,2.64c-0.883,0.645-2.047,0.967-3.49,0.967c-1.031,0-1.965-0.164-2.797-0.492s-1.525-0.782-2.08-1.36
		v-2.721h2.022l0.277,1.853c0.263,0.215,0.618,0.393,1.069,0.533s0.953,0.21,1.508,0.21c0.717,0,1.26-0.146,1.633-0.438
		c0.373-0.292,0.561-0.683,0.561-1.172c0-0.501-0.178-0.904-0.533-1.208s-0.977-0.59-1.865-0.859
		c-1.545-0.448-2.715-0.979-3.509-1.593c-0.794-0.614-1.19-1.456-1.19-2.523c0-1.056,0.447-1.919,1.343-2.591
		s2.019-1.016,3.374-1.034c1.002,0,1.914,0.152,2.738,0.457c0.822,0.304,1.516,0.71,2.076,1.217V15.844z"/>
	<path fill="#58595B" d="M357.675,15.844h-1.959l-0.341-1.79c-0.227-0.144-0.558-0.269-0.993-0.376s-0.897-0.161-1.387-0.161
		c-0.716,0-1.27,0.151-1.66,0.452s-0.586,0.69-0.586,1.167c0,0.442,0.204,0.804,0.612,1.087c0.409,0.284,1.114,0.583,2.117,0.899
		c1.438,0.4,2.527,0.928,3.271,1.584s1.114,1.519,1.114,2.586c0,1.116-0.441,1.996-1.324,2.64c-0.884,0.645-2.047,0.967-3.49,0.967
		c-1.032,0-1.965-0.164-2.797-0.492s-1.525-0.782-2.081-1.36v-2.721h2.022l0.278,1.853c0.262,0.215,0.618,0.393,1.069,0.533
		c0.45,0.14,0.953,0.21,1.508,0.21c0.716,0,1.26-0.146,1.633-0.438c0.373-0.292,0.56-0.683,0.56-1.172
		c0-0.501-0.178-0.904-0.532-1.208c-0.355-0.304-0.978-0.59-1.866-0.859c-1.545-0.448-2.715-0.979-3.508-1.593
		c-0.794-0.614-1.19-1.456-1.19-2.523c0-1.056,0.447-1.919,1.342-2.591c0.896-0.671,2.02-1.016,3.374-1.034
		c1.003,0,1.915,0.152,2.738,0.457s1.516,0.71,2.076,1.217V15.844z"/>
</g>
<rect x="2.904" y="4.277" fill="none" stroke="#D1D3D4" stroke-miterlimit="10" width="116.867" height="36.145"/>
<g>
	<path fill="#58595B" d="M27.604,11.683v1.575l-1.396,0.269v7.276c0,1.259-0.41,2.257-1.23,2.993
		c-0.82,0.737-1.857,1.105-3.11,1.105c-1.36,0-2.438-0.331-3.231-0.993c-0.793-0.663-1.175-1.638-1.146-2.927l0.018-0.054h2.542
		c0,0.687,0.164,1.186,0.492,1.499c0.328,0.313,0.77,0.47,1.325,0.47c0.483,0,0.893-0.186,1.23-0.559
		c0.337-0.373,0.505-0.884,0.505-1.535v-7.276l-1.396-0.269v-1.575h4H27.604z"/>
	<path fill="#58595B" d="M34.208,24.713c-0.071-0.161-0.134-0.327-0.188-0.497s-0.096-0.342-0.125-0.515
		c-0.31,0.358-0.688,0.647-1.132,0.868c-0.445,0.221-0.953,0.331-1.526,0.331c-0.949,0-1.702-0.258-2.26-0.774
		c-0.558-0.516-0.837-1.219-0.837-2.108c0-0.907,0.364-1.607,1.092-2.103c0.728-0.495,1.796-0.743,3.204-0.743h1.333v-0.949
		c0-0.465-0.134-0.826-0.402-1.083c-0.269-0.257-0.666-0.385-1.19-0.385c-0.298,0-0.564,0.034-0.796,0.103
		c-0.233,0.069-0.42,0.151-0.564,0.246l-0.17,1.038h-1.969l0.009-2.147c0.478-0.322,1.025-0.594,1.642-0.814
		c0.618-0.221,1.29-0.331,2.018-0.331c1.199,0,2.173,0.294,2.922,0.881c0.749,0.588,1.123,1.424,1.123,2.51v4
		c0,0.149,0.001,0.289,0.005,0.42c0.003,0.131,0.013,0.256,0.031,0.376l0.796,0.107v1.566H34.208z M31.944,22.968
		c0.394,0,0.751-0.085,1.074-0.255s0.573-0.383,0.751-0.64v-1.477h-1.333c-0.555,0-0.976,0.13-1.262,0.389
		c-0.286,0.26-0.429,0.572-0.429,0.936c0,0.328,0.105,0.584,0.317,0.77S31.568,22.968,31.944,22.968z"/>
	<path fill="#58595B" d="M41.717,16.605l-0.913,0.17l1.28,4.332l0.17,0.913h0.054l0.188-0.913l1.262-4.322l-0.931-0.179V15.03h4.394
		v1.575l-0.841,0.134l-2.855,7.974h-2.497l-2.864-7.974l-0.841-0.134V15.03h4.394V16.605z"/>
	<path fill="#58595B" d="M53.718,24.713c-0.071-0.161-0.134-0.327-0.188-0.497s-0.096-0.342-0.125-0.515
		c-0.31,0.358-0.688,0.647-1.132,0.868c-0.445,0.221-0.953,0.331-1.526,0.331c-0.949,0-1.702-0.258-2.26-0.774
		c-0.558-0.516-0.837-1.219-0.837-2.108c0-0.907,0.364-1.607,1.092-2.103c0.728-0.495,1.796-0.743,3.204-0.743h1.333v-0.949
		c0-0.465-0.134-0.826-0.402-1.083c-0.269-0.257-0.666-0.385-1.19-0.385c-0.298,0-0.564,0.034-0.796,0.103
		c-0.233,0.069-0.42,0.151-0.564,0.246l-0.17,1.038h-1.969l0.009-2.147c0.478-0.322,1.025-0.594,1.642-0.814
		c0.618-0.221,1.29-0.331,2.018-0.331c1.199,0,2.173,0.294,2.922,0.881c0.749,0.588,1.123,1.424,1.123,2.51v4
		c0,0.149,0.001,0.289,0.005,0.42c0.003,0.131,0.013,0.256,0.031,0.376l0.796,0.107v1.566H53.718z M51.454,22.968
		c0.394,0,0.751-0.085,1.074-0.255s0.573-0.383,0.751-0.64v-1.477h-1.333c-0.555,0-0.976,0.13-1.262,0.389
		c-0.286,0.26-0.429,0.572-0.429,0.936c0,0.328,0.105,0.584,0.317,0.77S51.078,22.968,51.454,22.968z"/>
	<path fill="#58595B" d="M65.155,18.359h-1.754l-0.277-1.208c-0.179-0.143-0.404-0.262-0.676-0.358
		c-0.271-0.095-0.571-0.143-0.899-0.143c-0.46,0-0.823,0.103-1.092,0.309s-0.402,0.464-0.402,0.774c0,0.292,0.128,0.536,0.385,0.729
		c0.256,0.194,0.77,0.366,1.539,0.515c1.199,0.239,2.088,0.589,2.667,1.051c0.578,0.462,0.868,1.1,0.868,1.911
		c0,0.871-0.375,1.583-1.123,2.135c-0.749,0.552-1.735,0.828-2.958,0.828c-0.746,0-1.431-0.109-2.054-0.327
		c-0.623-0.218-1.177-0.529-1.66-0.935l-0.027-2.175h1.826l0.358,1.262c0.155,0.131,0.367,0.229,0.635,0.291
		s0.549,0.094,0.841,0.094c0.531,0,0.936-0.095,1.213-0.286s0.416-0.451,0.416-0.779c0-0.286-0.14-0.534-0.42-0.743
		c-0.281-0.208-0.797-0.394-1.549-0.555c-1.14-0.233-2-0.577-2.582-1.034c-0.582-0.457-0.873-1.079-0.873-1.866
		c0-0.812,0.334-1.511,1.002-2.099c0.668-0.588,1.62-0.882,2.855-0.882c0.751,0,1.463,0.102,2.134,0.305
		c0.671,0.203,1.198,0.462,1.58,0.778L65.155,18.359z"/>
	<path fill="#58595B" d="M70.865,22.896c0.465,0,0.838-0.135,1.118-0.407s0.421-0.634,0.421-1.087h2.362l0.027,0.054
		c0.023,0.979-0.344,1.797-1.102,2.457s-1.7,0.989-2.827,0.989c-1.444,0-2.557-0.457-3.339-1.369
		c-0.781-0.913-1.172-2.085-1.172-3.517v-0.269c0-1.426,0.401-2.598,1.204-3.517c0.802-0.918,1.946-1.378,3.432-1.378
		c0.781,0,1.482,0.116,2.103,0.349c0.621,0.232,1.137,0.561,1.549,0.984l0.035,2.586h-2.12l-0.43-1.512
		c-0.132-0.113-0.293-0.207-0.483-0.282c-0.191-0.075-0.409-0.112-0.653-0.112c-0.74,0-1.262,0.268-1.566,0.805
		c-0.304,0.537-0.456,1.229-0.456,2.076v0.269c0,0.865,0.14,1.562,0.421,2.089C69.669,22.632,70.161,22.896,70.865,22.896z"/>
	<path fill="#58595B" d="M75.806,23.147l1.253-0.269v-6.005l-1.388-0.269V15.03h3.821l0.117,1.414
		c0.227-0.501,0.519-0.892,0.877-1.172c0.357-0.28,0.772-0.42,1.243-0.42c0.138,0,0.282,0.01,0.435,0.031s0.278,0.046,0.38,0.076
		l-0.277,2.38l-1.073-0.027c-0.382,0-0.698,0.075-0.949,0.224c-0.25,0.149-0.441,0.361-0.572,0.635v4.708l1.253,0.269v1.566h-5.119
		V23.147z"/>
	<path fill="#58595B" d="M82.876,23.147l1.262-0.269v-6.005l-1.396-0.269V15.03h4.01v7.849l1.253,0.269v1.566h-5.128V23.147z
		 M86.751,12.712h-2.613v-1.959h2.613V12.712z"/>
	<path fill="#58595B" d="M88.3,16.605V15.03h3.794l0.126,1.128c0.286-0.417,0.629-0.74,1.028-0.967c0.4-0.227,0.865-0.34,1.396-0.34
		c1.199,0,2.13,0.468,2.792,1.405c0.662,0.937,0.993,2.169,0.993,3.696v0.188c0,1.432-0.331,2.583-0.993,3.454
		s-1.587,1.307-2.774,1.307c-0.507,0-0.957-0.094-1.352-0.282c-0.394-0.188-0.73-0.464-1.011-0.828v2.801l1.262,0.269v1.575h-5.128
		v-1.575l1.262-0.269v-9.719L88.3,16.605z M95.816,19.952c0-0.913-0.151-1.653-0.456-2.22c-0.305-0.566-0.77-0.85-1.396-0.85
		c-0.394,0-0.729,0.081-1.006,0.242c-0.278,0.161-0.497,0.391-0.658,0.689v4.242c0.161,0.274,0.38,0.483,0.658,0.626
		c0.277,0.143,0.618,0.214,1.024,0.214c0.632,0,1.096-0.247,1.392-0.743c0.295-0.495,0.442-1.166,0.442-2.013V19.952z"/>
	<path fill="#58595B" d="M103.083,12.658v2.372h1.7v1.835h-1.7v4.931c0,0.376,0.077,0.645,0.232,0.806s0.364,0.241,0.627,0.241
		c0.179,0,0.335-0.007,0.47-0.022c0.134-0.015,0.284-0.041,0.452-0.076l0.224,1.888c-0.293,0.089-0.582,0.157-0.868,0.201
		c-0.286,0.045-0.597,0.067-0.931,0.067c-0.901,0-1.595-0.248-2.081-0.743s-0.729-1.28-0.729-2.354v-4.939h-1.423V15.03h1.423
		v-2.372H103.083z"/>
</g>
<polyline fill="none" stroke="#888888" stroke-miterlimit="10" points="130.348,18 133.336,22.35 130.348,26.699 "/>
<polyline fill="none" stroke="#888888" stroke-miterlimit="10" points="272.282,26.699 269.295,22.35 272.282,18 "/>
<polyline fill="none" stroke="#888888" stroke-miterlimit="10" points="217.938,49.641 201.316,61.058 184.694,49.641 "/>
<g>
	<path fill="#101241" d="M50.159,30.799c0-1.063,0.203-2.017,0.608-2.861s0.859-1.408,1.36-1.692h0.026l0.114,0.321
		c-0.425,0.302-0.795,0.838-1.112,1.608s-0.475,1.641-0.475,2.61v0.088c0,0.97,0.158,1.84,0.475,2.61s0.687,1.312,1.112,1.626
		l-0.114,0.308h-0.026c-0.507-0.293-0.962-0.853-1.364-1.679c-0.403-0.826-0.604-1.784-0.604-2.874V30.799z"/>
	<path fill="#101241" d="M54.259,29.019l-0.593,0.044l1.187,3.129l0.154,0.558h0.026l0.167-0.558l1.169-3.129l-0.593-0.044v-0.391
		h1.6v0.391l-0.466,0.04l-1.679,4.324h-0.422l-1.683-4.324l-0.466-0.04v-0.391h1.6V29.019z"/>
	<path fill="#101241" d="M59.994,33.475c-0.598,0-1.093-0.219-1.485-0.657s-0.589-0.996-0.589-1.672v-0.242
		c0-0.68,0.195-1.244,0.587-1.692c0.391-0.448,0.863-0.672,1.417-0.672c0.583,0,1.042,0.185,1.375,0.554S61.8,29.955,61.8,30.57
		v0.448h-3.357v0.127c0,0.533,0.143,0.981,0.428,1.342c0.286,0.362,0.66,0.543,1.123,0.543c0.325,0,0.604-0.045,0.835-0.136
		s0.429-0.221,0.593-0.391l0.224,0.36c-0.179,0.188-0.404,0.336-0.677,0.446C60.697,33.42,60.372,33.475,59.994,33.475z
		 M59.924,28.988c-0.387,0-0.713,0.149-0.978,0.446c-0.266,0.297-0.42,0.67-0.464,1.118l0.009,0.022h2.786v-0.132
		c0-0.413-0.122-0.759-0.365-1.037S60.34,28.988,59.924,28.988z"/>
	<path fill="#101241" d="M63.879,28.628l0.066,0.791v0.057c0.135-0.293,0.319-0.522,0.551-0.688
		c0.233-0.165,0.509-0.248,0.829-0.248c0.067,0,0.132,0.005,0.196,0.016c0.062,0.01,0.115,0.021,0.156,0.033l-0.07,0.492
		l-0.391-0.026c-0.331,0-0.603,0.093-0.815,0.279c-0.212,0.187-0.364,0.442-0.455,0.767v2.839l0.716,0.057v0.387h-1.956v-0.387
		l0.716-0.057v-3.863l-0.716-0.057v-0.391h0.716H63.879z"/>
	<path fill="#101241" d="M70.444,31.137c0,0.712-0.161,1.28-0.483,1.703c-0.322,0.424-0.766,0.635-1.332,0.635
		c-0.349,0-0.649-0.07-0.901-0.208c-0.252-0.139-0.456-0.339-0.611-0.6l-0.057,0.716h-0.448v-6.407l-0.716-0.057v-0.391h1.239v2.848
		c0.158-0.267,0.36-0.473,0.606-0.617c0.246-0.146,0.539-0.218,0.879-0.218c0.571,0,1.018,0.228,1.34,0.684s0.483,1.062,0.483,1.821
		V31.137z M69.913,31.045c0-0.606-0.117-1.099-0.352-1.479s-0.58-0.569-1.037-0.569c-0.369,0-0.666,0.091-0.89,0.272
		c-0.225,0.182-0.391,0.415-0.499,0.699v2.149c0.117,0.275,0.292,0.494,0.525,0.657c0.232,0.162,0.523,0.244,0.872,0.244
		c0.457,0,0.801-0.17,1.033-0.51s0.347-0.797,0.347-1.371V31.045z"/>
	<path fill="#101241" d="M73.068,30.865c0,1.09-0.203,2.048-0.609,2.874s-0.86,1.386-1.364,1.679l-0.026-0.004l-0.11-0.303
		c0.422-0.299,0.792-0.836,1.11-1.613c0.317-0.776,0.477-1.651,0.477-2.624v-0.088c0-0.964-0.162-1.836-0.485-2.617
		c-0.324-0.781-0.691-1.321-1.101-1.62l0.11-0.303l0.026-0.004c0.498,0.287,0.951,0.853,1.36,1.696
		c0.408,0.844,0.613,1.797,0.613,2.861V30.865z"/>
</g>
<g>
	<path fill="#101241" d="M188.375,30.799c0-1.063,0.203-2.017,0.608-2.861s0.859-1.408,1.36-1.692h0.026l0.114,0.321
		c-0.425,0.302-0.795,0.838-1.112,1.608s-0.475,1.641-0.475,2.61v0.088c0,0.97,0.158,1.84,0.475,2.61s0.687,1.312,1.112,1.626
		l-0.114,0.308h-0.026c-0.507-0.293-0.962-0.853-1.364-1.679c-0.403-0.826-0.604-1.784-0.604-2.874V30.799z"/>
	<path fill="#101241" d="M190.999,32.996l0.716-0.057v-3.863l-0.716-0.057v-0.391h1.182l0.048,0.831
		c0.152-0.293,0.358-0.519,0.618-0.679c0.259-0.159,0.566-0.239,0.92-0.239c0.516,0,0.908,0.158,1.178,0.473
		s0.404,0.806,0.404,1.474v2.452l0.716,0.057v0.387h-1.96v-0.387l0.716-0.057v-2.448c0-0.545-0.102-0.93-0.305-1.156
		c-0.204-0.226-0.493-0.338-0.868-0.338c-0.369,0-0.67,0.098-0.903,0.292c-0.232,0.195-0.4,0.454-0.503,0.776v2.874l0.716,0.057
		v0.387h-1.96V32.996z"/>
	<path fill="#101241" d="M196.848,30.935c0-0.7,0.192-1.274,0.576-1.723s0.892-0.672,1.525-0.672c0.636,0,1.146,0.224,1.529,0.672
		s0.575,1.022,0.575,1.723v0.145c0,0.703-0.191,1.278-0.572,1.725c-0.383,0.447-0.891,0.67-1.523,0.67
		c-0.639,0-1.15-0.223-1.534-0.67c-0.384-0.446-0.576-1.021-0.576-1.725V30.935z M197.375,31.08c0,0.551,0.139,1.014,0.417,1.389
		s0.667,0.562,1.165,0.562c0.489,0,0.873-0.188,1.151-0.562s0.417-0.838,0.417-1.389v-0.145c0-0.542-0.14-1.002-0.42-1.38
		c-0.279-0.378-0.665-0.567-1.157-0.567s-0.877,0.189-1.156,0.567s-0.417,0.838-0.417,1.38V31.08z"/>
	<path fill="#101241" d="M205.404,32.601c-0.15,0.278-0.354,0.494-0.613,0.646s-0.564,0.229-0.916,0.229
		c-0.502,0-0.894-0.17-1.176-0.51c-0.283-0.34-0.424-0.867-0.424-1.582v-2.307l-0.59-0.057v-0.391h0.59h0.522v2.764
		c0,0.58,0.099,0.996,0.296,1.248c0.199,0.252,0.479,0.378,0.842,0.378c0.398,0,0.716-0.088,0.951-0.264
		c0.236-0.176,0.402-0.419,0.5-0.729v-2.949l-0.678-0.057v-0.391h0.678h0.527v4.311l0.637,0.057v0.387h-1.099L205.404,32.601z"/>
	<path fill="#101241" d="M207.228,32.996l0.716-0.057v-3.863l-0.716-0.057v-0.391h1.183l0.048,0.831
		c0.152-0.293,0.358-0.519,0.618-0.679c0.258-0.159,0.565-0.239,0.92-0.239c0.516,0,0.908,0.158,1.178,0.473
		s0.404,0.806,0.404,1.474v2.452l0.717,0.057v0.387h-1.961v-0.387l0.717-0.057v-2.448c0-0.545-0.102-0.93-0.305-1.156
		c-0.205-0.226-0.494-0.338-0.869-0.338c-0.369,0-0.67,0.098-0.902,0.292c-0.232,0.195-0.4,0.454-0.504,0.776v2.874l0.717,0.057
		v0.387h-1.96V32.996z"/>
	<path fill="#101241" d="M214.852,30.865c0,1.09-0.203,2.048-0.608,2.874s-0.86,1.386-1.364,1.679l-0.026-0.004l-0.11-0.303
		c0.422-0.299,0.792-0.836,1.11-1.613c0.317-0.776,0.477-1.651,0.477-2.624v-0.088c0-0.964-0.162-1.836-0.485-2.617
		c-0.324-0.781-0.691-1.321-1.102-1.62l0.11-0.303l0.026-0.004c0.498,0.287,0.951,0.853,1.36,1.696
		c0.408,0.844,0.612,1.797,0.612,2.861V30.865z"/>
</g>
<g>
	<path fill="#101241" d="M320.229,30.799c0-1.063,0.202-2.017,0.608-2.861s0.859-1.408,1.36-1.692h0.026l0.114,0.321
		c-0.425,0.302-0.796,0.838-1.112,1.608s-0.475,1.641-0.475,2.61v0.088c0,0.97,0.158,1.84,0.475,2.61s0.688,1.312,1.112,1.626
		l-0.114,0.308h-0.026c-0.507-0.293-0.962-0.853-1.364-1.679c-0.403-0.826-0.604-1.784-0.604-2.874V30.799z"/>
	<path fill="#101241" d="M326.232,33.383c-0.035-0.161-0.061-0.3-0.074-0.417c-0.016-0.117-0.022-0.236-0.022-0.356
		c-0.176,0.249-0.41,0.456-0.703,0.62s-0.622,0.246-0.989,0.246c-0.465,0-0.826-0.12-1.08-0.36c-0.256-0.24-0.383-0.565-0.383-0.976
		c0-0.439,0.189-0.788,0.566-1.046c0.379-0.258,0.891-0.387,1.539-0.387h1.05v-0.628c0-0.34-0.109-0.606-0.327-0.8
		c-0.219-0.193-0.523-0.29-0.916-0.29c-0.264,0-0.506,0.036-0.724,0.107c-0.218,0.072-0.4,0.169-0.547,0.292l-0.044,0.637h-0.436
		l0.005-0.914c0.22-0.17,0.482-0.308,0.789-0.413c0.306-0.105,0.632-0.158,0.978-0.158c0.524,0,0.946,0.133,1.266,0.4
		s0.479,0.649,0.479,1.147v2.338c0,0.097,0.003,0.19,0.007,0.279c0.005,0.089,0.015,0.176,0.028,0.261l0.475,0.031v0.387H326.232z
		 M324.501,33.009c0.381,0,0.716-0.088,1.007-0.264c0.289-0.176,0.499-0.403,0.628-0.681v-0.954h-1.06
		c-0.477,0-0.858,0.099-1.145,0.296c-0.285,0.198-0.428,0.448-0.428,0.75c0,0.255,0.088,0.461,0.266,0.618
		C323.946,32.931,324.19,33.009,324.501,33.009z"/>
	<path fill="#101241" d="M331.221,32.697c-0.158,0.249-0.362,0.441-0.611,0.576s-0.542,0.202-0.879,0.202
		c-0.568,0-1.013-0.212-1.334-0.637c-0.32-0.425-0.48-0.992-0.48-1.701v-0.092c0-0.759,0.16-1.366,0.48-1.821
		c0.321-0.456,0.769-0.684,1.343-0.684c0.331,0,0.618,0.07,0.861,0.209s0.445,0.337,0.606,0.595v-2.369l-0.717-0.057v-0.391h0.717
		h0.527v6.412l0.717,0.057v0.387h-1.188L331.221,32.697z M328.447,31.137c0,0.574,0.115,1.031,0.345,1.371s0.577,0.51,1.04,0.51
		c0.336,0,0.618-0.076,0.846-0.229c0.227-0.152,0.403-0.362,0.529-0.628v-2.25c-0.117-0.27-0.287-0.489-0.508-0.659
		s-0.508-0.255-0.859-0.255c-0.463,0-0.811,0.19-1.043,0.569c-0.233,0.379-0.35,0.872-0.35,1.479V31.137z"/>
	<path fill="#101241" d="M334.6,33.774c0,0.489-0.117,0.866-0.352,1.131s-0.561,0.398-0.98,0.398c-0.09,0-0.175-0.007-0.252-0.022
		c-0.078-0.015-0.158-0.035-0.24-0.062l0.058-0.444c0.044,0.015,0.106,0.029,0.187,0.044s0.153,0.022,0.218,0.022
		c0.264,0,0.469-0.09,0.615-0.271c0.146-0.18,0.22-0.446,0.22-0.797v-4.698l-0.717-0.057v-0.391h1.244V33.774z M334.573,27.248
		h-0.527v-0.721h0.527V27.248z"/>
	<path fill="#101241" d="M337.825,33.475c-0.598,0-1.093-0.219-1.485-0.657s-0.589-0.996-0.589-1.672v-0.242
		c0-0.68,0.195-1.244,0.587-1.692c0.391-0.448,0.863-0.672,1.417-0.672c0.583,0,1.042,0.185,1.376,0.554s0.5,0.861,0.5,1.477v0.448
		h-3.357v0.127c0,0.533,0.144,0.981,0.429,1.342c0.286,0.362,0.66,0.543,1.123,0.543c0.325,0,0.604-0.045,0.835-0.136
		s0.43-0.221,0.594-0.391l0.224,0.36c-0.179,0.188-0.404,0.336-0.677,0.446C338.528,33.42,338.203,33.475,337.825,33.475z
		 M337.755,28.988c-0.387,0-0.713,0.149-0.978,0.446c-0.266,0.297-0.42,0.67-0.464,1.118l0.009,0.022h2.786v-0.132
		c0-0.413-0.122-0.759-0.364-1.037C338.5,29.127,338.171,28.988,337.755,28.988z"/>
	<path fill="#101241" d="M342.602,33.031c0.35,0,0.656-0.1,0.924-0.299c0.266-0.199,0.399-0.476,0.399-0.831h0.466l0.009,0.026
		c0.015,0.439-0.16,0.807-0.525,1.103c-0.364,0.296-0.788,0.444-1.272,0.444c-0.645,0-1.144-0.222-1.498-0.666
		c-0.354-0.444-0.531-1.015-0.531-1.712v-0.185c0-0.691,0.177-1.26,0.531-1.705s0.853-0.668,1.494-0.668
		c0.366,0,0.701,0.069,1.006,0.207s0.553,0.325,0.743,0.562l0.022,1.037h-0.449l-0.083-0.844c-0.141-0.158-0.315-0.284-0.525-0.375
		c-0.21-0.093-0.447-0.139-0.714-0.139c-0.51,0-0.887,0.183-1.132,0.547c-0.245,0.365-0.366,0.824-0.366,1.378v0.185
		c0,0.562,0.121,1.025,0.364,1.389S342.086,33.031,342.602,33.031z"/>
	<path fill="#101241" d="M346.588,27.411v1.217h1.046v0.431h-1.046v3.098c0,0.311,0.057,0.531,0.169,0.662s0.263,0.195,0.45,0.195
		c0.086,0,0.168-0.003,0.249-0.011c0.08-0.007,0.173-0.02,0.278-0.038l0.08,0.391c-0.088,0.038-0.195,0.067-0.321,0.088
		s-0.252,0.031-0.378,0.031c-0.334,0-0.594-0.105-0.78-0.316s-0.278-0.545-0.278-1.002v-3.098h-0.818v-0.431h0.818v-1.217H346.588z"
		/>
	<path fill="#101241" d="M348.565,32.996l0.716-0.057v-3.863l-0.716-0.057v-0.391h1.239v4.311l0.717,0.057v0.387h-1.956V32.996z
		 M349.805,27.266h-0.523v-0.738h0.523V27.266z"/>
	<path fill="#101241" d="M352.784,29.019l-0.593,0.044l1.186,3.129l0.154,0.558h0.026l0.167-0.558l1.169-3.129l-0.593-0.044v-0.391
		h1.6v0.391l-0.467,0.04l-1.678,4.324h-0.422l-1.684-4.324l-0.466-0.04v-0.391h1.6V29.019z"/>
	<path fill="#101241" d="M358.52,33.475c-0.598,0-1.094-0.219-1.486-0.657s-0.588-0.996-0.588-1.672v-0.242
		c0-0.68,0.195-1.244,0.586-1.692s0.863-0.672,1.418-0.672c0.582,0,1.041,0.185,1.375,0.554s0.501,0.861,0.501,1.477v0.448h-3.357
		v0.127c0,0.533,0.144,0.981,0.429,1.342c0.285,0.362,0.66,0.543,1.123,0.543c0.324,0,0.604-0.045,0.834-0.136
		c0.232-0.091,0.43-0.221,0.594-0.391l0.225,0.36c-0.18,0.188-0.404,0.336-0.678,0.446C359.223,33.42,358.896,33.475,358.52,33.475z
		 M358.449,28.988c-0.387,0-0.713,0.149-0.979,0.446s-0.42,0.67-0.463,1.118l0.008,0.022h2.787v-0.132
		c0-0.413-0.122-0.759-0.365-1.037S358.865,28.988,358.449,28.988z"/>
	<path fill="#101241" d="M362.997,30.865c0,1.09-0.203,2.048-0.608,2.874c-0.406,0.826-0.861,1.386-1.365,1.679l-0.025-0.004
		l-0.11-0.303c0.422-0.299,0.792-0.836,1.11-1.613c0.316-0.776,0.477-1.651,0.477-2.624v-0.088c0-0.964-0.162-1.836-0.486-2.617
		s-0.69-1.321-1.101-1.62l0.11-0.303l0.025-0.004c0.498,0.287,0.951,0.853,1.361,1.696c0.408,0.844,0.612,1.797,0.612,2.861V30.865z
		"/>
</g>
</svg>
